<?xml version="1.0" encoding="UTF-8" standalone="no" ?>
<!DOCTYPE svg PUBLIC "-//W3C//DTD SVG 1.1//EN" "http://www.w3.org/Graphics/SVG/1.1/DTD/svg11.dtd">
<svg xmlns="http://www.w3.org/2000/svg" xmlns:xlink="http://www.w3.org/1999/xlink" version="1.1" width="32" height="32" viewBox="0 0 32 32" xml:space="preserve">
<desc>Created with Fabric.js 4.6.0</desc>
<defs>
</defs>
<g transform="matrix(1.08 0 0 1.01 15.37 15.55)" id="7aruZZvflS-2fGVdcvQaw"  >
<path style="stroke: rgb(255,255,255); stroke-width: 0; stroke-dasharray: none; stroke-linecap: butt; stroke-dashoffset: 0; stroke-linejoin: miter; stroke-miterlimit: 4; fill: rgb(255,255,255); fill-rule: nonzero; opacity: 1;" vector-effect="non-scaling-stroke"  transform=" translate(0, 0)" d="M -16 -16 L 16 -16 L 16 16 L -16 16 z" stroke-linecap="round" />
</g>
<g transform="matrix(1 0 0 1 15.91 16.13)" id="Bxy1jw2flOYJkVSmn3Dgz"  >
<path style="stroke: rgb(255,255,255); stroke-width: 0; stroke-dasharray: none; stroke-linecap: butt; stroke-dashoffset: 0; stroke-linejoin: miter; stroke-miterlimit: 4; fill: rgb(107,11,61); fill-rule: nonzero; opacity: 1;" vector-effect="non-scaling-stroke"  transform=" translate(0, 0)" d="M 16 0 C 16 8.832 8.832 16 0 16 C -8.832 16 -16 8.832 -16 0 C -16 -8.832 -8.832 -16 0 -16 C 8.832 -16 16 -8.832 16 0 z M 4.97981 0.65567 C 7.0380199999999995 -7.94039 6.91695 -9.51431 6.432659999999999 -9.63538 C 5.948379999999999 -9.75645 9.2173 -10.36181 9.2173 -10.36181 C 9.2173 -10.36181 7.76445 -11.33038 6.91695 -11.08824 C 6.06945 -10.846100000000002 3.7691 -11.935740000000001 3.52696 -11.33038 C 3.28482 -10.72502 -3.8583800000000004 -4.91361 -3.97945 -3.82397 C -4.1005199999999995 -2.73433 -13.423 3.4402999999999997 -13.423 3.4402999999999997 C -13.423 3.4402999999999997 -8.822289999999999 1.6242299999999996 -8.33801 2.3506599999999995 C -8.2989 2.4093299999999997 -8.23925 2.4608899999999996 -8.16226 2.5067499999999994 C -6.336869999999999 0.03861999999999943 -3.30872 -3.9169600000000004 -2.8897899999999996 -3.5818200000000004 C -2.2844299999999995 -3.0975400000000004 1.8319900000000002 -1.5236100000000006 2.6794900000000004 -1.7657500000000004 C 3.5269900000000005 -2.00789 3.5269900000000005 -4.0661000000000005 3.5269900000000005 -4.79253 C 3.5269900000000005 -5.51896 3.5269900000000005 -9.87752 4.011270000000001 -10.11966 C 4.495550000000001 -10.361799999999999 5.46412 -10.361799999999999 5.46412 -10.361799999999999 L 4.97984 -9.877519999999999 C 4.97984 -9.877519999999999 5.94841 -9.998589999999998 5.46412 -9.393239999999999 C 4.97984 -8.78788 4.37448 -9.1511 4.37448 -9.1511 z M -3.49516 3.92459 C -3.3923099999999997 4.09601 -3.2780199999999997 4.35652 -3.1603299999999996 4.67371 C -3.1143899999999998 4.3797999999999995 -3.0003299999999995 4.14493 -2.7687299999999997 4.045669999999999 C -1.9212299999999995 3.6824599999999994 -1.3158799999999997 3.9245999999999994 -0.9526599999999996 4.408879999999999 C -0.5894499999999996 4.893159999999999 -0.10515999999999959 9.130659999999999 0.7423400000000004 9.372799999999998 C 1.0221900000000004 9.452759999999998 1.3680500000000004 9.427099999999998 1.7232500000000004 9.361229999999997 C 0.8910000000000003 7.637179999999997 -0.7105099999999995 3.924599999999997 -0.7105099999999995 3.924599999999997 C -0.7105099999999995 3.924599999999997 4.616620000000001 2.229599999999997 4.253410000000001 1.6242499999999973 C 3.8902000000000005 1.0188899999999972 0.3791300000000004 -1.6446700000000027 -0.8315799999999998 -0.9182500000000027 C -1.5719999999999996 -0.4740000000000027 -4.66702 1.4192399999999972 -6.95979 2.823039999999997 C -5.692 3.013899999999997 -3.97078 3.131889999999997 -3.49516 3.924589999999997 z M -3.16033 4.67371 C -3.28249 5.455299999999999 -2.92289 6.6543399999999995 -3.01087 6.83031 C -3.1319500000000002 7.07245 -2.8898 11.0678 -2.52659 11.0678 C -2.36649 11.0678 -1.71239 10.95018 -1.03089 10.81863 C -1.08508 10.78261 -1.1397300000000001 10.74463 -1.1948100000000001 10.70458 C -1.8885 10.20007 -2.04442 8.952259999999999 -2.36928 7.46923 C -2.57979 6.5081999999999995 -2.87974 5.4299 -3.16033 4.67371 z M 1.22661 11.43101 L 0.7423299999999999 10.46244 C 0.7423299999999999 10.46244 -0.16632000000000002 10.65174 -1.03089 10.81863 C 0.22522999999999982 11.653540000000001 1.2266099999999998 11.43101 1.2266099999999998 11.43101 z M 1.72325 9.36122 C 1.9643 9.86057 2.1408199999999997 10.1931 2.1952 10.220289999999999 C 2.43734 10.341359999999998 4.49555 10.099219999999999 4.49555 10.099219999999999 C 4.49555 10.099219999999999 4.01126 9.13065 3.5269799999999996 9.00958 C 3.2026099999999995 8.92849 2.44372 9.227599999999999 1.7232499999999995 9.36122 z M -6.95979 2.82304 C -7.47196 2.7459300000000004 -7.91012 2.65693 -8.16226 2.5067500000000003 C -8.97458 3.6051 -9.54871 4.40888 -9.54871 4.40888 C -9.54871 4.40888 -8.41608 3.71469 -6.95979 2.8230399999999998 z" stroke-linecap="round" />
</g>
</svg>